<svg width="83" height="20" viewBox="0 0 83 20" fill="none" xmlns="http://www.w3.org/2000/svg">
<path d="M32.3201 9.09761C32.3201 9.61819 32.1906 10.1062 31.9318 10.5618C31.6825 11.0173 31.2846 11.3845 30.7381 11.6633C30.2012 11.9422 29.5205 12.0817 28.696 12.0817H27.0134V15.8187H25V6.08566H28.696C29.4726 6.08566 30.1341 6.2158 30.6806 6.4761C31.2271 6.73639 31.6346 7.09429 31.903 7.5498C32.181 8.00531 32.3201 8.52125 32.3201 9.09761ZM28.6097 10.506C29.1658 10.506 29.578 10.3851 29.8465 10.1434C30.1149 9.89243 30.2492 9.54382 30.2492 9.09761C30.2492 8.1494 29.7027 7.6753 28.6097 7.6753H27.0134V10.506H28.6097Z" fill="#222222"/>
<path d="M41.1559 11.7888C41.1559 12.0677 41.1367 12.3187 41.0983 12.5418H35.2739C35.3219 13.0996 35.5232 13.5365 35.878 13.8526C36.2327 14.1687 36.6689 14.3267 37.1866 14.3267C37.9345 14.3267 38.4666 14.0153 38.783 13.3924H40.9545C40.7244 14.1361 40.2834 14.7497 39.6315 15.2331C38.9795 15.7072 38.179 15.9442 37.2298 15.9442C36.4628 15.9442 35.7725 15.7815 35.1589 15.4562C34.5549 15.1215 34.0803 14.6521 33.7351 14.0478C33.3996 13.4436 33.2318 12.7463 33.2318 11.9562C33.2318 11.1567 33.3996 10.4548 33.7351 9.8506C34.0707 9.24635 34.5405 8.78154 35.1445 8.45618C35.7485 8.13081 36.4436 7.96813 37.2298 7.96813C37.9872 7.96813 38.6631 8.12616 39.2575 8.44223C39.8616 8.7583 40.3266 9.20916 40.6525 9.79482C40.9881 10.3712 41.1559 11.0359 41.1559 11.7888ZM39.0706 11.2311C39.061 10.7291 38.874 10.3293 38.5097 10.0319C38.1454 9.7251 37.6996 9.57171 37.1723 9.57171C36.6737 9.57171 36.2519 9.72045 35.9067 10.0179C35.5712 10.3061 35.365 10.7105 35.2883 11.2311H39.0706Z" fill="#222222"/>
<path d="M44.9696 9.69721V13.4343C44.9696 13.6946 45.0319 13.8851 45.1565 14.006C45.2908 14.1175 45.5113 14.1733 45.8181 14.1733H46.7529V15.8187H45.4873C43.7903 15.8187 42.9418 15.0193 42.9418 13.4203V9.69721H41.9927V8.09363H42.9418V6.18327H44.9696V8.09363H46.7529V9.69721H44.9696Z" fill="#222222"/>
<path d="M51.2498 15.9442C50.5979 15.9442 50.013 15.8327 49.4953 15.6096C48.9776 15.3772 48.5653 15.0657 48.2585 14.6753C47.9613 14.2849 47.7983 13.8526 47.7696 13.3785H49.7973C49.8357 13.676 49.9843 13.9223 50.2431 14.1175C50.5116 14.3127 50.8423 14.4104 51.2354 14.4104C51.6189 14.4104 51.9161 14.336 52.1271 14.1873C52.3476 14.0385 52.4578 13.8479 52.4578 13.6155C52.4578 13.3645 52.3236 13.1786 52.0552 13.0578C51.7963 12.9276 51.3792 12.7882 50.804 12.6394C50.2096 12.5 49.7206 12.3559 49.3371 12.2072C48.9632 12.0584 48.6372 11.8307 48.3592 11.5239C48.0907 11.2171 47.9565 10.8035 47.9565 10.2829C47.9565 9.85525 48.0811 9.46481 48.3304 9.11155C48.5893 8.7583 48.9536 8.47941 49.4234 8.2749C49.9028 8.07038 50.4636 7.96813 51.106 7.96813C52.0552 7.96813 52.8126 8.20053 53.3782 8.66534C53.9439 9.12085 54.2555 9.73904 54.313 10.5199H52.3859C52.3572 10.2131 52.2229 9.97145 51.9833 9.79482C51.7532 9.6089 51.4416 9.51594 51.0485 9.51594C50.6842 9.51594 50.4013 9.58101 50.2 9.71115C50.0082 9.8413 49.9124 10.0226 49.9124 10.255C49.9124 10.5153 50.0466 10.7151 50.315 10.8546C50.5835 10.9847 51.0005 11.1195 51.5662 11.259C52.1415 11.3984 52.616 11.5425 52.9899 11.6912C53.3639 11.84 53.685 12.0724 53.9535 12.3884C54.2315 12.6952 54.3753 13.1042 54.3849 13.6155C54.3849 14.0618 54.2555 14.4615 53.9966 14.8147C53.7474 15.168 53.383 15.4469 52.9037 15.6514C52.4339 15.8466 51.8826 15.9442 51.2498 15.9442Z" fill="#222222"/>
<path d="M60.5246 7.98207C61.1286 7.98207 61.6655 8.11222 62.1353 8.37251C62.6051 8.62351 62.9694 9 63.2283 9.50199C63.4967 9.99469 63.6309 10.5896 63.6309 11.2869V15.8187H61.6176V11.5518C61.6176 10.9382 61.4594 10.4688 61.143 10.1434C60.8266 9.80876 60.3952 9.64143 59.8487 9.64143C59.2926 9.64143 58.8516 9.80876 58.5256 10.1434C58.2092 10.4688 58.051 10.9382 58.051 11.5518V15.8187H56.0376V5.5H58.051V9.05578C58.3099 8.72112 58.655 8.46082 59.0865 8.2749C59.5179 8.07968 59.9973 7.98207 60.5246 7.98207Z" fill="#222222"/>
<path d="M69.0833 15.9442C68.3163 15.9442 67.626 15.7815 67.0124 15.4562C66.3988 15.1215 65.9147 14.6521 65.5599 14.0478C65.2148 13.4436 65.0422 12.7463 65.0422 11.9562C65.0422 11.166 65.2196 10.4688 65.5743 9.86454C65.9386 9.26029 66.4324 8.79548 67.0556 8.47012C67.6788 8.13546 68.3739 7.96813 69.1409 7.96813C69.9079 7.96813 70.603 8.13546 71.2262 8.47012C71.8493 8.79548 72.3383 9.26029 72.693 9.86454C73.0574 10.4688 73.2395 11.166 73.2395 11.9562C73.2395 12.7463 73.0526 13.4436 72.6787 14.0478C72.3143 14.6521 71.8158 15.1215 71.183 15.4562C70.5598 15.7815 69.8599 15.9442 69.0833 15.9442ZM69.0833 14.243C69.4477 14.243 69.788 14.1594 70.1044 13.992C70.4304 13.8154 70.6892 13.5551 70.881 13.2112C71.0727 12.8672 71.1686 12.4489 71.1686 11.9562C71.1686 11.2218 70.9673 10.6594 70.5646 10.2689C70.1715 9.86919 69.6874 9.66932 69.1121 9.66932C68.5369 9.66932 68.0527 9.86919 67.6596 10.2689C67.2761 10.6594 67.0844 11.2218 67.0844 11.9562C67.0844 12.6906 67.2713 13.2576 67.6452 13.6574C68.0287 14.0478 68.5081 14.243 69.0833 14.243Z" fill="#222222"/>
<path d="M76.7298 9.20916C76.9886 8.85591 77.3434 8.56308 77.794 8.33068C78.2542 8.08898 78.7767 7.96813 79.3615 7.96813C80.0423 7.96813 80.6559 8.13081 81.2023 8.45618C81.7584 8.78154 82.1947 9.24635 82.511 9.8506C82.837 10.4456 83 11.1381 83 11.9283C83 12.7185 82.837 13.4203 82.511 14.0339C82.1947 14.6381 81.7584 15.1076 81.2023 15.4422C80.6559 15.7769 80.0423 15.9442 79.3615 15.9442C78.7767 15.9442 78.259 15.828 77.8084 15.5956C77.3674 15.3632 77.0078 15.0704 76.7298 14.7171V19.5H74.7164V8.09363H76.7298V9.20916ZM80.9435 11.9283C80.9435 11.4635 80.8428 11.0637 80.6415 10.7291C80.4497 10.3851 80.1909 10.1248 79.8649 9.94821C79.5485 9.77158 79.2034 9.68327 78.8294 9.68327C78.4651 9.68327 78.12 9.77623 77.794 9.96215C77.4776 10.1388 77.2187 10.3991 77.0174 10.743C76.8257 11.087 76.7298 11.4914 76.7298 11.9562C76.7298 12.421 76.8257 12.8254 77.0174 13.1693C77.2187 13.5133 77.4776 13.7782 77.794 13.9641C78.12 14.1408 78.4651 14.2291 78.8294 14.2291C79.2034 14.2291 79.5485 14.1361 79.8649 13.9502C80.1909 13.7643 80.4497 13.4993 80.6415 13.1554C80.8428 12.8114 80.9435 12.4024 80.9435 11.9283Z" fill="#222222"/>
<path d="M14 4.00001V2C14 0.889998 13.11 0 12 0H8C6.89 0 6 0.889998 6 2V4.00001H0V17C0 18.11 0.890001 19 2 19H18C19.11 19 20 18.11 20 17V4.00001H14ZM8 2H12V4.00001H8V2Z" fill="#F7A432"/>
<path d="M7.03484 11.4721C7.57826 11.4721 8.01878 11.0316 8.01878 10.4882C8.01878 9.94474 7.57826 9.50421 7.03484 9.50421C6.49143 9.50421 6.0509 9.94474 6.0509 10.4882C6.0509 11.0316 6.49143 11.4721 7.03484 11.4721Z" fill="#815141"/>
<path d="M8.8059 9.89778C9.34932 9.89778 9.78984 9.45726 9.78984 8.91385C9.78984 8.37043 9.34932 7.9299 8.8059 7.9299C8.26249 7.9299 7.82196 8.37043 7.82196 8.91385C7.82196 9.45726 8.26249 9.89778 8.8059 9.89778Z" fill="#815141"/>
<path d="M11.1674 9.89778C11.7108 9.89778 12.1513 9.45726 12.1513 8.91385C12.1513 8.37043 11.7108 7.9299 11.1674 7.9299C10.6239 7.9299 10.1834 8.37043 10.1834 8.91385C10.1834 9.45726 10.6239 9.89778 11.1674 9.89778Z" fill="#815141"/>
<path d="M12.9385 11.4721C13.4819 11.4721 13.9224 11.0316 13.9224 10.4882C13.9224 9.94474 13.4819 9.50421 12.9385 9.50421C12.3951 9.50421 11.9545 9.94474 11.9545 10.4882C11.9545 11.0316 12.3951 11.4721 12.9385 11.4721Z" fill="#815141"/>
<path d="M12.0883 12.5977C11.7459 12.1963 11.4586 11.8539 11.1122 11.4524C10.9312 11.2399 10.699 11.0274 10.4235 10.9329C10.3802 10.9172 10.3369 10.9054 10.2936 10.8975C10.1952 10.8818 10.0889 10.8818 9.98662 10.8818C9.88429 10.8818 9.77802 10.8818 9.67569 10.9014C9.63239 10.9094 9.5891 10.9211 9.54581 10.9368C9.2703 11.0313 9.04203 11.2438 8.85705 11.4564C8.51464 11.8578 8.22733 12.2002 7.88098 12.6017C7.3654 13.1172 6.73174 13.6879 6.84981 14.4869C6.96395 14.8883 7.25126 15.2859 7.76684 15.4C8.05415 15.459 8.97119 15.2268 9.94726 15.2268H10.0181C10.9942 15.2268 11.9112 15.4551 12.1985 15.4C12.7141 15.2859 13.0014 14.8844 13.1155 14.4869C13.2376 13.684 12.6039 13.1133 12.0883 12.5977L12.0883 12.5977Z" fill="#815141"/>
</svg>
